<?xml version="1.0" encoding="UTF-8" standalone="no"?>
<!DOCTYPE svg PUBLIC "-//W3C//DTD SVG 1.1//EN"
 "http://www.w3.org/Graphics/SVG/1.1/DTD/svg11.dtd">
<!-- Generated by graphviz version 2.38.0 (20140413.2041)
 -->
<!-- Title: %3 Pages: 1 -->
<svg width="774pt" height="231pt"
 viewBox="0.00 0.00 773.94 231.00" xmlns="http://www.w3.org/2000/svg" xmlns:xlink="http://www.w3.org/1999/xlink">
<g id="graph0" class="graph" transform="scale(1 1) rotate(0) translate(4 227)">
<title>%3</title>
<polygon fill="#333333" stroke="none" points="-4,4 -4,-227 769.941,-227 769.941,4 -4,4"/>
<text text-anchor="middle" x="382.971" y="-9.2" font-family="Times,serif" font-size="16.00" fill="white">Network Map</text>
<!-- R2 -->
<g id="node1" class="node"><title>R2</title>
<polygon fill="#006699" stroke="#006699" points="162.941,-99 86.9411,-99 86.9411,-26 162.941,-26 162.941,-99"/>
<text text-anchor="middle" x="124.941" y="-58.8" font-family="Helvetica,sans-Serif" font-size="14.00" fill="white">R2</text>
</g>
<!-- SW3 -->
<g id="node4" class="node"><title>SW3</title>
<polygon fill="#006699" stroke="#006699" points="107.441,-223 18.4411,-223 18.4411,-150 107.441,-150 107.441,-223"/>
<text text-anchor="middle" x="62.9411" y="-182.8" font-family="Helvetica,sans-Serif" font-size="14.00" fill="white">SW3</text>
</g>
<!-- R2&#45;&#45;SW3 -->
<g id="edge3" class="edge"><title>R2&#45;&#45;SW3</title>
<path fill="none" stroke="green" stroke-dasharray="5,2" d="M86.6884,-88.3942C77.5719,-96.3559 69.021,-106.002 63.9411,-117 59.303,-127.042 57.9027,-138.828 58,-149.765"/>
<text text-anchor="middle" x="113.941" y="-120.8" font-family="Courier,monospace" font-size="14.00" fill="white"> &#160;&#160;&#160;&#160;&#160;&#160;&#160;&#160;&#160;&#160;&#160;</text>
<text text-anchor="middle" x="29" y="-138.565" font-family="Courier,monospace" font-size="14.00" fill="white">Eth0/11</text>
<text text-anchor="middle" x="61.6884" y="-77.1942" font-family="Courier,monospace" font-size="14.00" fill="white">Eth0/1</text>
</g>
<!-- SW1 -->
<g id="node6" class="node"><title>SW1</title>
<polygon fill="#006699" stroke="#006699" points="353.441,-223 264.441,-223 264.441,-150 353.441,-150 353.441,-223"/>
<text text-anchor="middle" x="308.941" y="-182.8" font-family="Helvetica,sans-Serif" font-size="14.00" fill="white">SW1</text>
</g>
<!-- R2&#45;&#45;SW1 -->
<g id="edge2" class="edge"><title>R2&#45;&#45;SW1</title>
<path fill="none" stroke="green" stroke-dasharray="5,2" d="M162.959,-99.2067C175.789,-110.382 190.523,-122.312 204.941,-132 223.564,-144.513 245.487,-156.191 264.391,-165.425"/>
<text text-anchor="middle" x="254.941" y="-120.8" font-family="Courier,monospace" font-size="14.00" fill="white"> &#160;&#160;&#160;&#160;&#160;&#160;&#160;&#160;&#160;&#160;&#160;</text>
<text text-anchor="middle" x="239.391" y="-154.225" font-family="Courier,monospace" font-size="14.00" fill="white">Eth0/2</text>
<text text-anchor="middle" x="137.959" y="-103.007" font-family="Courier,monospace" font-size="14.00" fill="white">Eth0/0</text>
</g>
<!-- R1 -->
<g id="node2" class="node"><title>R1</title>
<polygon fill="#006699" stroke="#006699" points="346.941,-99 270.941,-99 270.941,-26 346.941,-26 346.941,-99"/>
<text text-anchor="middle" x="308.941" y="-58.8" font-family="Helvetica,sans-Serif" font-size="14.00" fill="white">R1</text>
</g>
<!-- R1&#45;&#45;SW1 -->
<g id="edge1" class="edge"><title>R1&#45;&#45;SW1</title>
<path fill="none" stroke="green" stroke-dasharray="5,2" d="M308.941,-99.1154C308.941,-115.01 308.941,-133.704 308.941,-149.629"/>
<text text-anchor="middle" x="358.941" y="-120.8" font-family="Courier,monospace" font-size="14.00" fill="white"> &#160;&#160;&#160;&#160;&#160;&#160;&#160;&#160;&#160;&#160;&#160;</text>
<text text-anchor="middle" x="283.941" y="-138.429" font-family="Courier,monospace" font-size="14.00" fill="white">Eth0/1</text>
<text text-anchor="middle" x="283.941" y="-102.915" font-family="Courier,monospace" font-size="14.00" fill="white">Eth0/0</text>
</g>
<!-- R5 -->
<g id="node3" class="node"><title>R5</title>
<polygon fill="#006699" stroke="#006699" points="592.941,-223 516.941,-223 516.941,-150 592.941,-150 592.941,-223"/>
<text text-anchor="middle" x="554.941" y="-182.8" font-family="Helvetica,sans-Serif" font-size="14.00" fill="white">R5</text>
</g>
<!-- R3 -->
<g id="node5" class="node"><title>R3</title>
<polygon fill="#006699" stroke="#006699" points="592.941,-99 516.941,-99 516.941,-26 592.941,-26 592.941,-99"/>
<text text-anchor="middle" x="554.941" y="-58.8" font-family="Helvetica,sans-Serif" font-size="14.00" fill="white">R3</text>
</g>
<!-- R3&#45;&#45;R5 -->
<g id="edge6" class="edge"><title>R3&#45;&#45;R5</title>
<path fill="none" stroke="green" stroke-dasharray="5,2" d="M554.941,-99.1154C554.941,-115.01 554.941,-133.704 554.941,-149.629"/>
<text text-anchor="middle" x="604.941" y="-120.8" font-family="Courier,monospace" font-size="14.00" fill="white"> &#160;&#160;&#160;&#160;&#160;&#160;&#160;&#160;&#160;&#160;&#160;</text>
<text text-anchor="middle" x="529.941" y="-138.429" font-family="Courier,monospace" font-size="14.00" fill="white">Eth0/0</text>
<text text-anchor="middle" x="529.941" y="-102.915" font-family="Courier,monospace" font-size="14.00" fill="white">Eth0/2</text>
</g>
<!-- R3&#45;&#45;SW1 -->
<g id="edge4" class="edge"><title>R3&#45;&#45;SW1</title>
<path fill="none" stroke="green" stroke-dasharray="5,2" d="M516.774,-82.4286C472.643,-104.314 400.107,-140.287 353.45,-163.426"/>
<text text-anchor="middle" x="496.941" y="-120.8" font-family="Courier,monospace" font-size="14.00" fill="white"> &#160;&#160;&#160;&#160;&#160;&#160;&#160;&#160;&#160;&#160;&#160;</text>
<text text-anchor="middle" x="378.45" y="-152.226" font-family="Courier,monospace" font-size="14.00" fill="white">Eth0/3</text>
<text text-anchor="middle" x="491.774" y="-71.2286" font-family="Courier,monospace" font-size="14.00" fill="white">Eth0/0</text>
</g>
<!-- R4 -->
<g id="node7" class="node"><title>R4</title>
<polygon fill="#006699" stroke="#006699" points="715.941,-223 639.941,-223 639.941,-150 715.941,-150 715.941,-223"/>
<text text-anchor="middle" x="677.941" y="-182.8" font-family="Helvetica,sans-Serif" font-size="14.00" fill="white">R4</text>
</g>
<!-- R3&#45;&#45;R4 -->
<g id="edge5" class="edge"><title>R3&#45;&#45;R4</title>
<path fill="none" stroke="green" stroke-dasharray="5,2" d="M593.21,-75.6463C614.383,-84.1535 639.633,-97.5285 655.941,-117 663.721,-126.288 668.763,-138.373 672.026,-149.8"/>
<text text-anchor="middle" x="715.941" y="-120.8" font-family="Courier,monospace" font-size="14.00" fill="white"> &#160;&#160;&#160;&#160;&#160;&#160;&#160;&#160;&#160;&#160;&#160;</text>
<text text-anchor="middle" x="647.026" y="-138.6" font-family="Courier,monospace" font-size="14.00" fill="white">Eth0/0</text>
<text text-anchor="middle" x="618.21" y="-64.4463" font-family="Courier,monospace" font-size="14.00" fill="white">Eth0/1</text>
</g>
</g>
</svg>
